<?xml version="1.0" encoding="UTF-8" ?>
<!DOCTYPE svg PUBLIC "-//W3C//DTD SVG 1.1//EN" "http://www.w3.org/Graphics/SVG/1.1/DTD/svg11.dtd">
<svg width="981pt" height="723pt" viewBox="0 0 981 723" version="1.1" xmlns="http://www.w3.org/2000/svg">
<path fill="#fffefe" d=" M 0.00 0.00 L 981.00 0.00 L 981.00 723.00 L 0.00 723.00 L 0.00 0.00 Z" />
<path fill="#9b0606" d=" M 304.96 205.11 C 363.34 184.87 425.81 177.42 487.40 180.82 C 574.06 185.58 658.79 210.23 737.32 246.55 C 766.09 260.08 794.41 274.80 820.94 292.37 C 804.17 285.70 787.52 278.66 770.50 272.63 C 697.70 246.03 621.36 228.69 543.97 223.37 C 571.31 247.82 589.18 282.56 592.93 319.06 C 596.93 355.13 587.43 392.54 566.36 422.13 C 557.56 434.43 547.17 445.78 534.89 454.67 C 547.23 452.19 559.73 450.42 572.05 447.75 C 659.30 430.00 743.67 398.51 821.64 355.58 C 864.13 332.07 905.04 305.43 942.34 274.27 C 897.00 332.37 842.23 383.54 779.38 422.28 C 746.69 442.43 711.86 459.13 675.64 471.91 C 626.91 489.17 575.75 499.25 524.21 502.78 C 435.74 508.77 346.62 496.00 261.91 470.44 C 235.89 462.58 210.24 453.48 185.11 443.11 C 167.66 435.81 150.28 428.22 133.67 419.17 C 181.13 434.65 229.70 446.97 279.08 454.52 C 307.19 458.94 335.54 461.74 363.95 463.40 C 327.59 441.28 301.69 402.87 294.76 360.88 C 287.72 320.33 297.97 276.95 323.24 244.36 C 251.40 263.70 182.50 294.68 121.44 337.32 C 106.24 347.88 91.74 359.44 77.88 371.71 C 114.74 325.48 158.29 284.25 208.10 252.22 C 238.37 232.76 270.93 216.82 304.96 205.11 Z" />
<path fill="#fffefe" d=" M 431.54 230.81 C 455.25 228.29 479.73 233.57 500.26 245.71 C 530.37 263.22 551.49 295.27 555.29 329.94 C 559.71 365.39 545.86 402.43 519.31 426.31 C 493.85 449.99 457.00 460.59 422.85 454.08 C 404.11 450.68 386.31 442.37 371.62 430.27 C 353.68 415.55 340.38 395.21 334.33 372.79 C 328.08 350.16 329.21 325.60 337.46 303.63 C 346.03 280.51 362.46 260.43 383.38 247.39 C 397.88 238.27 414.49 232.53 431.54 230.81 Z" />
<path fill="#9b0606" d=" M 433.56 298.66 C 446.13 295.85 459.87 298.30 470.50 305.63 C 481.13 312.70 488.61 324.31 490.64 336.91 C 492.54 348.25 490.27 360.31 484.06 370.03 C 477.40 380.63 466.42 388.49 454.13 391.05 C 442.46 393.48 429.81 391.68 419.60 385.40 C 408.01 378.47 399.62 366.38 397.41 353.04 C 395.29 340.97 397.96 328.09 404.99 318.01 C 411.61 308.26 422.06 301.22 433.56 298.66 Z" />
</svg>
